<svg xmlns="http://www.w3.org/2000/svg" xmlns:xlink="http://www.w3.org/1999/xlink" viewBox="0 0 2176.64 489.04"><defs><style>.cls-1{isolation:isolate;}.cls-10,.cls-2,.cls-4,.cls-6,.cls-8{mix-blend-mode:lighten;}.cls-2{fill:url(#linear-gradient);}.cls-11,.cls-3,.cls-5,.cls-7,.cls-9{mix-blend-mode:color-dodge;}.cls-3{fill:url(#linear-gradient-2);}.cls-4{fill:url(#linear-gradient-3);}.cls-5{fill:url(#linear-gradient-4);}.cls-6{fill:url(#linear-gradient-5);}.cls-7{fill:url(#linear-gradient-6);}.cls-8{fill:url(#linear-gradient-7);}.cls-9{fill:url(#linear-gradient-8);}.cls-10{fill:url(#linear-gradient-9);}.cls-11{fill:url(#linear-gradient-10);}.cls-12{mix-blend-mode:screen;fill:url(#radial-gradient);}</style><linearGradient id="linear-gradient" x1="625.68" y1="364.3" x2="625.68" y2="101.04" gradientUnits="userSpaceOnUse"><stop offset="0" stop-color="#006689"/><stop offset="0.27" stop-color="#006757"/><stop offset="0.47" stop-color="#006837"/><stop offset="0.59" stop-color="#006535" stop-opacity="0.97"/><stop offset="0.7" stop-color="#005b30" stop-opacity="0.87"/><stop offset="0.79" stop-color="#004a27" stop-opacity="0.71"/><stop offset="0.87" stop-color="#00331b" stop-opacity="0.49"/><stop offset="0.95" stop-color="#00140b" stop-opacity="0.2"/><stop offset="1" stop-opacity="0"/></linearGradient><linearGradient id="linear-gradient-2" x1="585.61" y1="636.73" x2="634.68" y2="246.52" gradientUnits="userSpaceOnUse"><stop offset="0" stop-color="#fff"/><stop offset="1" stop-opacity="0"/></linearGradient><linearGradient id="linear-gradient-3" x1="515.01" y1="368.97" x2="515.01" y2="60.54" xlink:href="#linear-gradient"/><linearGradient id="linear-gradient-4" x1="505.19" y1="560.21" x2="531.67" y2="142.74" xlink:href="#linear-gradient-2"/><linearGradient id="linear-gradient-5" x1="398.64" y1="411.03" x2="398.64" y2="149.33" xlink:href="#linear-gradient"/><linearGradient id="linear-gradient-6" x1="345.61" y1="648.19" x2="415.71" y2="229.94" xlink:href="#linear-gradient-2"/><linearGradient id="linear-gradient-7" x1="288.85" y1="501.38" x2="288.85" y2="99.48" xlink:href="#linear-gradient"/><linearGradient id="linear-gradient-8" x1="270.01" y1="588.2" x2="310.51" y2="142.69" xlink:href="#linear-gradient-2"/><linearGradient id="linear-gradient-9" x1="173.58" y1="520.07" x2="173.58" y2="168.02" xlink:href="#linear-gradient"/><linearGradient id="linear-gradient-10" x1="133.3" y1="726.33" x2="194.05" y2="214.62" xlink:href="#linear-gradient-2"/><radialGradient id="radial-gradient" cx="339.52" cy="464.77" r="310.19" gradientUnits="userSpaceOnUse"><stop offset="0" stop-color="#fff"/><stop offset="0.24" stop-color="#fdfdfd"/><stop offset="0.38" stop-color="#f4f4f4"/><stop offset="0.49" stop-color="#e6e6e6"/><stop offset="0.58" stop-color="#d3d3d3"/><stop offset="0.67" stop-color="#b9b9b9"/><stop offset="0.75" stop-color="#999"/><stop offset="0.83" stop-color="#747474"/><stop offset="0.9" stop-color="#484848"/><stop offset="0.97" stop-color="#181818"/><stop offset="1"/></radialGradient></defs><g class="cls-1"><g id="Layer_1" data-name="Layer 1"><path class="cls-2" d="M641.76,387.93,730.51,55.48H621.16L520.84,431.13C576.88,427.27,598.88,401,641.76,387.93Z" transform="translate(-53.55 -55.48)"/><path class="cls-3" d="M641.76,387.93,730.51,55.48H639.65L540,428.78C582.57,421,604.12,399.39,641.76,387.93Z" transform="translate(-53.55 -55.48)"/><path class="cls-4" d="M486.44,430.8a233.14,233.14,0,0,0,34.57.32L621.33,55.48H512L408.69,442.2C430.33,433.6,454.53,428.3,486.44,430.8Z" transform="translate(-53.55 -55.48)"/><path class="cls-5" d="M486.44,430.8a233.14,233.14,0,0,0,34.57.32L621.33,55.48H530.47L429,435.47C445.53,431.12,464.09,429.05,486.44,430.8Z" transform="translate(-53.55 -55.48)"/><path class="cls-6" d="M408.73,442.19,512,55.48H402.66L285.26,494.87C338.52,484.38,369.38,457.82,408.73,442.19Z" transform="translate(-53.55 -55.48)"/><path class="cls-7" d="M408.73,442.19,512,55.48H421.15L305.06,490C346.72,477.62,374.52,455.78,408.73,442.19Z" transform="translate(-53.55 -55.48)"/><path class="cls-8" d="M225.09,499.07c23.29.93,43.09-.81,60.49-4.27L403,55.48H293.62L174.73,500.4A365.92,365.92,0,0,1,225.09,499.07Z" transform="translate(-53.55 -55.48)"/><path class="cls-9" d="M225.09,499.07c23.29.93,43.09-.81,60.49-4.27L403,55.48H312.11L193.57,499.09C203.52,498.67,214,498.62,225.09,499.07Z" transform="translate(-53.55 -55.48)"/><path class="cls-10" d="M174.72,500.4,293.61,55.48H184.26l-130.71,489h.87C72.4,530,110.36,506.76,174.72,500.4Z" transform="translate(-53.55 -55.48)"/><path class="cls-11" d="M174.72,500.4,293.61,55.48H202.75L76,529.89C97.34,517.64,129.52,504.87,174.72,500.4Z" transform="translate(-53.55 -55.48)"/><path d="M812.48,186.32A332.35,332.35,0,0,1,867.56,182c28.37,0,49.15,6.6,62.35,18.47,12.2,10.56,19.46,26.72,19.46,46.51,0,20.12-5.94,36-17.16,47.5-15.17,16.16-39.91,24.41-67.94,24.41-8.58,0-16.5-.33-23.09-2V406h-28.7Zm28.7,107.2c6.26,1.65,14.18,2.31,23.75,2.31,34.63,0,55.74-16.82,55.74-47.5,0-29.36-20.78-43.54-52.45-43.54-12.53,0-22.1,1-27,2.31Z" transform="translate(-53.55 -55.48)"/><path d="M998.85,246.35l35,94.34c3.63,10.55,7.59,23.09,10.23,32.65h.66c3-9.56,6.26-21.77,10.22-33.31l31.67-93.68h30.67l-43.54,113.8c-20.78,54.76-35,82.79-54.75,99.94-14.19,12.54-28.37,17.49-35.63,18.81l-7.25-24.41a76.88,76.88,0,0,0,25.4-14.19c7.91-6.26,17.81-17.48,24.4-32.32,1.32-3,2.31-5.28,2.31-6.93s-.66-4-2-7.59l-59-147.11Z" transform="translate(-53.55 -55.48)"/><path d="M1180.59,336.07,1157.5,406h-29.68l75.53-222.32H1238L1313.85,406h-30.67l-23.75-69.93Zm72.9-22.43-21.77-64c-5-14.51-8.25-27.71-11.55-40.57h-.66c-3.29,13.19-6.92,26.72-11.21,40.24l-21.77,64.32Z" transform="translate(-53.55 -55.48)"/><path d="M1475.15,362.46c0,16.49.33,31,1.32,43.54h-25.73l-1.65-26.06h-.65c-7.59,12.86-24.41,29.69-52.78,29.69-25.07,0-55.08-13.86-55.08-69.93V246.35h29v88.4c0,30.35,9.24,50.8,35.63,50.8,19.46,0,33-13.53,38.26-26.39a42.45,42.45,0,0,0,2.64-14.84v-98h29Z" transform="translate(-53.55 -55.48)"/><path d="M1523.31,296.16c0-18.8-.33-35-1.32-49.81h25.4l1,31.34h1.32c7.26-21.44,24.74-35,44.2-35a31.41,31.41,0,0,1,8.25,1v27.38a43.62,43.62,0,0,0-9.9-1c-20.45,0-35,15.5-38.92,37.27A81.74,81.74,0,0,0,1552,320.9V406h-28.7Z" transform="translate(-53.55 -55.48)"/><path d="M1772.35,324.86c0,59-40.9,84.77-79.49,84.77-43.21,0-76.53-31.67-76.53-82.13,0-53.44,35-84.78,79.17-84.78C1741.34,242.72,1772.35,276,1772.35,324.86Zm-126.66,1.64c0,35,20.12,61.36,48.49,61.36,27.7,0,48.48-26.06,48.48-62,0-27.05-13.52-61.36-47.82-61.36S1645.69,296.16,1645.69,326.5Z" transform="translate(-53.55 -55.48)"/><path d="M1809,296.16c0-18.8-.33-35-1.32-49.81H1833l1,31.34h1.32c7.26-21.44,24.74-35,44.2-35a31.41,31.41,0,0,1,8.25,1v27.38a43.62,43.62,0,0,0-9.9-1c-20.45,0-35,15.5-38.92,37.27a81.74,81.74,0,0,0-1.32,13.53V406H1809Z" transform="translate(-53.55 -55.48)"/><path d="M2003.58,406l-2.31-20.12h-1c-8.9,12.53-26.06,23.75-48.82,23.75-32.32,0-48.81-22.76-48.81-45.85,0-38.59,34.3-59.7,96-59.37v-3.3c0-13.2-3.63-36.95-36.28-36.95-14.84,0-30.35,4.62-41.56,11.88l-6.6-19.13c13.19-8.58,32.33-14.19,52.45-14.19,48.82,0,60.69,33.32,60.69,65.31v59.71c0,13.85.66,27.37,2.64,38.26Zm-4.29-81.47c-31.66-.66-67.62,4.94-67.62,36,0,18.8,12.54,27.71,27.38,27.71,20.78,0,34-13.2,38.59-26.72a30.31,30.31,0,0,0,1.65-9.24Z" transform="translate(-53.55 -55.48)"/><path d="M2196.87,406l-28.36-49.15c-11.55-18.8-18.81-31-25.73-43.87h-.66c-6.27,12.87-12.54,24.74-24.08,44.2L2091.32,406h-33l67.95-112.48L2061,183.68h33.32l29.36,52.12c8.24,14.51,14.51,25.72,20.45,37.6h1c6.26-13.19,11.87-23.42,20.12-37.6l30.34-52.12h33l-67.62,108.19L2230.19,406Z" transform="translate(-53.55 -55.48)"/><path class="cls-12" d="M641.76,387.93c-1.26.39-2.51.78-3.74,1.19l-1.2.41c-.82.28-1.65.56-2.46.85l-1.35.5-2.22.82-1.38.54-2.14.85-1.33.54-2.16.92-1.21.51-2.37,1.06-.91.4q-3.33,1.51-6.55,3.09l-.55.26-2.68,1.32-.79.4-2.49,1.25-.66.34-2.79,1.42-.18.09-7,3.57-.27.14q-2.52,1.29-5.06,2.56l-.51.25-1.48.74-1.68.83-1.45.7-1.74.83L582,415l-1.8.84-1.44.65-1.89.83-1.41.62-2.05.86-1.3.54-2.52,1-.91.35c-1.16.45-2.33.88-3.52,1.31l-.66.23c-1,.35-2,.69-3,1l-1.15.37-2.58.82-1.29.39-2.57.73-1.34.37q-1.33.36-2.7.69l-1.29.33c-1,.24-2,.46-3,.69l-1.06.24c-1.29.27-2.59.53-3.92.77l-.3.06-.36.07h0a174.51,174.51,0,0,1-19,2.35h0a233.14,233.14,0,0,1-34.57-.32c-2.5-.2-4.94-.33-7.35-.43l-2-.07c-1.91-.07-3.81-.1-5.67-.1h-1.49c-2.29,0-4.53.07-6.73.16l-1.41.08c-1.79.09-3.55.21-5.28.35l-1.71.15q-6.36.58-12.31,1.63l-1.64.29c-1.56.29-3.11.59-4.64.92l-1.32.27q-2.79.63-5.51,1.34a173.91,173.91,0,0,0-20.68,6.82c-1.94.77-3.85,1.57-5.75,2.39-.31.13-.63.26-.93.4q-2.68,1.17-5.32,2.4l-1.2.56c-1.72.81-3.42,1.62-5.12,2.46l-1.23.61c-1.49.75-3,1.49-4.46,2.26l-1.66.85-4,2.06c-16.45,8.66-32.83,18.09-51.82,25.91l-.18.08q-3.4,1.4-6.91,2.72l-.25.09c-4.76,1.78-9.68,3.45-14.82,5l-.05,0c-6.17,1.83-12.63,3.45-19.48,4.81h0l-.29.06h0c-17.33,3.42-37,5.13-60.17,4.21-2.6-.11-5.16-.18-7.7-.23-.61,0-1.2,0-1.8,0-2,0-4-.06-5.92-.06H208q-3.1,0-6.15.07l-1.11,0q-3.61.08-7.14.23-9.76.42-18.84,1.31l.42-1.55h0l-.42,1.55c-2.52.25-5,.54-7.43.84l-2.06.26c-1.93.25-3.84.52-5.72.79-.52.08-1,.15-1.57.24-2.31.35-4.58.73-6.8,1.12l-1.64.31q-2.61.48-5.16,1l-1.91.4q-3.18.66-6.24,1.38l-.61.15c-1.86.45-3.69.9-5.49,1.38l-1.89.5c-1.49.4-3,.81-4.42,1.23l-1.49.43c-1.83.53-3.62,1.09-5.37,1.65l-1.64.54c-1.29.42-2.57.85-3.82,1.29l-1.76.61c-1.64.58-3.26,1.18-4.83,1.78l-1,.41c-1.29.5-2.56,1-3.8,1.51l-1.7.7-3.27,1.41-1.33.57c-1.41.63-2.77,1.26-4.11,1.89l-1.46.71c-.94.45-1.87.9-2.78,1.37l-1.44.72c-1.25.63-2.48,1.28-3.67,1.92l-.9.5c-1,.52-1.89,1-2.81,1.56a164,164,0,0,0-22.14,15h-.87L55,539.3a163.89,163.89,0,0,1,21.61-14.54c.92-.52,1.85-1,2.81-1.56l.9-.5c1.19-.64,2.42-1.29,3.67-1.92.47-.25,1-.48,1.44-.73.91-.46,1.84-.91,2.78-1.36.49-.24,1-.48,1.46-.71,1.34-.63,2.7-1.26,4.11-1.89l1.33-.58c1.07-.47,2.16-.93,3.27-1.4l1.7-.7c1.24-.51,2.51-1,3.8-1.51l1-.41c1.57-.6,3.19-1.19,4.83-1.78l1.76-.61c1.25-.44,2.53-.87,3.82-1.29l1.64-.54c1.75-.56,3.54-1.12,5.37-1.65l1.49-.43c1.45-.42,2.93-.83,4.42-1.24l1.89-.49q2.7-.7,5.49-1.38l.61-.15c2-.48,4.12-.93,6.24-1.38l1.91-.39q2.55-.53,5.16-1l1.64-.31q3.33-.59,6.8-1.13l1.57-.23q2.82-.42,5.72-.79l2.06-.26c2.44-.3,4.91-.59,7.43-.83h0c.43-.05.88-.07,1.31-.12l-.4,1.51h0l.41-1.51q8.46-.8,17.52-1.2c2.35-.1,4.73-.17,7.14-.23l1.11,0q3-.06,6.15-.08h1.7c2,0,3.93,0,5.92.05l1.8,0c2.54,0,5.1.13,7.7.23,23.15.93,42.84-.79,60.17-4.21h0l.29-.06h0c6.85-1.36,13.31-3,19.48-4.81l.05,0c5.14-1.52,10.06-3.2,14.82-5l.25-.09c2.34-.89,4.64-1.79,6.91-2.72l.18-.08c19-7.82,35.37-17.25,51.82-25.91l4-2.06,1.66-.86q2.22-1.14,4.46-2.25l1.23-.61c1.7-.84,3.4-1.65,5.12-2.46l1.2-.56q2.64-1.23,5.32-2.4c.3-.14.62-.27.93-.4,1.9-.82,3.81-1.62,5.75-2.4a175.73,175.73,0,0,1,20.68-6.81q2.72-.7,5.51-1.34l1.32-.28c1.53-.32,3.08-.62,4.64-.91l1.64-.29q6-1,12.31-1.63l1.71-.15c1.73-.14,3.49-.26,5.28-.35l1.41-.08q3.3-.15,6.73-.16h1.49c1.86,0,3.76,0,5.67.1l2,.07c2.41.1,4.85.23,7.35.43a233.14,233.14,0,0,0,34.57.32h0A174.51,174.51,0,0,0,540,424h0l.36-.07.3-.06c1.33-.24,2.63-.5,3.92-.78l1.06-.23c1-.22,2-.46,3-.69l1.29-.33q1.37-.33,2.7-.69l1.34-.37,2.57-.73,1.29-.39,2.58-.82,1.15-.37c1-.33,2-.67,3-1l.66-.23c1.19-.43,2.36-.86,3.52-1.31l.91-.35,2.52-1,1.3-.55c.69-.29,1.38-.57,2.05-.87l1.41-.61,1.89-.83,1.44-.65,1.8-.84,1.46-.68,1.74-.83,1.45-.7,1.68-.83,1.48-.73.51-.26q2.53-1.28,5.06-2.56l.27-.14,7-3.57.18-.09,2.79-1.42.66-.34,2.49-1.25.79-.4,2.68-1.31.55-.27q3.22-1.57,6.55-3.08c.3-.15.6-.28.91-.41.79-.36,1.57-.71,2.37-1.05l1.21-.52,2.16-.92,1.33-.54,2.14-.85,1.38-.53c.73-.29,1.47-.56,2.22-.83l1.35-.5c.81-.29,1.64-.57,2.46-.85l1.2-.41c1.23-.41,2.48-.8,3.74-1.19l1.4-.43Z" transform="translate(-53.55 -55.48)"/></g></g></svg>